<svg width="166" height="156" viewBox="0 0 166 156" fill="none" xmlns="http://www.w3.org/2000/svg">
<g filter="url(#filter0_d)">
<path fill-rule="evenodd" clip-rule="evenodd" d="M56 86.1395C66.4934 86.1395 75 77.6329 75 67.1395C75 56.6461 66.4934 48.1395 56 48.1395C45.5066 48.1395 37 56.6461 37 67.1395C37 77.6329 45.5066 86.1395 56 86.1395ZM56 76.1395C60.9706 76.1395 65 72.1101 65 67.1395C65 62.169 60.9706 58.1395 56 58.1395C51.0294 58.1395 47 62.169 47 67.1395C47 72.1101 51.0294 76.1395 56 76.1395Z" fill="url(#paint0_linear)"/>
<path d="M91.9331 99.8592C92.5512 100.601 92.5512 101.678 91.9331 102.42L84.5365 111.296C83.7369 112.255 82.2632 112.255 81.4636 111.296L74.067 102.42C73.449 101.678 73.449 100.601 74.067 99.8592L81.4636 90.9833C82.2632 90.0238 83.7369 90.0237 84.5364 90.9832L91.9331 99.8592Z" fill="url(#paint1_linear)"/>
<path fill-rule="evenodd" clip-rule="evenodd" d="M110 86.1395C120.493 86.1395 129 77.6329 129 67.1395C129 56.6461 120.493 48.1395 110 48.1395C99.5066 48.1395 91 56.6461 91 67.1395C91 77.6329 99.5066 86.1395 110 86.1395ZM110 76.1395C114.971 76.1395 119 72.1101 119 67.1395C119 62.169 114.971 58.1395 110 58.1395C105.029 58.1395 101 62.169 101 67.1395C101 72.1101 105.029 76.1395 110 76.1395Z" fill="url(#paint2_linear)"/>
<path fill-rule="evenodd" clip-rule="evenodd" d="M45.8085 9.68654C46.5931 9.19357 47.6098 9.33254 48.2764 9.97608C57.2704 18.6588 69.5114 24 83 24C96.4886 24 108.73 18.6588 117.724 9.97608C118.39 9.33254 119.407 9.19357 120.191 9.68653C139.9 22.0705 153 44.0054 153 69C153 107.66 121.66 139 83 139C44.3401 139 13 107.66 13 69C13 44.0054 26.0999 22.0705 45.8085 9.68654ZM45.1342 19.9026C45.8552 19.3457 46.8612 19.377 47.5824 19.9339C57.3796 27.4993 69.6642 32 83 32C96.3358 32 108.62 27.4993 118.418 19.9339C119.139 19.377 120.145 19.3457 120.866 19.9026C135.546 31.241 145 49.0164 145 69C145 103.242 117.242 131 83 131C48.7583 131 21 103.242 21 69C21 49.0164 30.4544 31.241 45.1342 19.9026Z" fill="url(#paint3_linear)"/>
</g>
<path fill-rule="evenodd" clip-rule="evenodd" d="M75 65.1395C75 75.6329 66.4934 84.1395 56 84.1395C45.5066 84.1395 37 75.6329 37 65.1395C37 54.6461 45.5066 46.1395 56 46.1395C66.4934 46.1395 75 54.6461 75 65.1395ZM65 65.1395C65 70.1101 60.9706 74.1395 56 74.1395C51.0294 74.1395 47 70.1101 47 65.1395C47 60.169 51.0294 56.1395 56 56.1395C60.9706 56.1395 65 60.169 65 65.1395Z" fill="#0F1012"/>
<path d="M91.9331 97.8592L84.5365 88.9833C83.7369 88.0237 82.2632 88.0238 81.4636 88.9833L74.067 97.8592C73.449 98.6008 73.449 99.6782 74.067 100.42L81.4636 109.296C82.2632 110.255 83.7369 110.255 84.5365 109.296L91.9331 100.42C92.5512 99.6782 92.5512 98.6008 91.9331 97.8592Z" fill="#0F1012"/>
<path fill-rule="evenodd" clip-rule="evenodd" d="M110 84.1395C120.493 84.1395 129 75.6329 129 65.1395C129 54.6461 120.493 46.1395 110 46.1395C99.5066 46.1395 91 54.6461 91 65.1395C91 75.6329 99.5066 84.1395 110 84.1395ZM110 74.1395C114.971 74.1395 119 70.1101 119 65.1395C119 60.169 114.971 56.1395 110 56.1395C105.029 56.1395 101 60.169 101 65.1395C101 70.1101 105.029 74.1395 110 74.1395Z" fill="#0F1012"/>
<path fill-rule="evenodd" clip-rule="evenodd" d="M45.8085 7.68653C26.0999 20.0705 13 42.0054 13 67C13 105.66 44.3401 137 83 137C121.66 137 153 105.66 153 67C153 42.0054 139.9 20.0705 120.191 7.68654C119.407 7.19357 118.39 7.33254 117.724 7.97608C108.73 16.6588 96.4886 22 83 22C69.5114 22 57.2704 16.6588 48.2764 7.97608C47.6098 7.33254 46.5931 7.19357 45.8085 7.68653ZM45.1342 17.9026C30.4544 29.241 21 47.0164 21 67C21 101.242 48.7583 129 83 129C117.242 129 145 101.242 145 67C145 47.0164 135.546 29.241 120.866 17.9026C120.145 17.3457 119.139 17.377 118.418 17.9339C108.62 25.4993 96.3358 30 83 30C69.6642 30 57.3796 25.4993 47.5824 17.9339C46.8612 17.377 45.8552 17.3457 45.1342 17.9026Z" fill="#0F1012"/>
<defs>
<filter id="filter0_d" x="0" y="0.390076" width="166" height="155.61" filterUnits="userSpaceOnUse" color-interpolation-filters="sRGB">
<feFlood flood-opacity="0" result="BackgroundImageFix"/>
<feColorMatrix in="SourceAlpha" type="matrix" values="0 0 0 0 0 0 0 0 0 0 0 0 0 0 0 0 0 0 127 0"/>
<feOffset dy="4"/>
<feGaussianBlur stdDeviation="6.5"/>
<feColorMatrix type="matrix" values="0 0 0 0 0.105882 0 0 0 0 0.0941176 0 0 0 0 0.192157 0 0 0 1 0"/>
<feBlend mode="normal" in2="BackgroundImageFix" result="effect1_dropShadow"/>
<feBlend mode="normal" in="SourceGraphic" in2="effect1_dropShadow" result="shape"/>
</filter>
<linearGradient id="paint0_linear" x1="13" y1="74" x2="153" y2="74" gradientUnits="userSpaceOnUse">
<stop stop-color="#1D3118" stop-opacity="0.5"/>
<stop offset="0.5" stop-color="#251D59"/>
<stop offset="1" stop-color="#311824" stop-opacity="0.5"/>
</linearGradient>
<linearGradient id="paint1_linear" x1="13" y1="74" x2="153" y2="74" gradientUnits="userSpaceOnUse">
<stop stop-color="#1D3118" stop-opacity="0.5"/>
<stop offset="0.5" stop-color="#251D59"/>
<stop offset="1" stop-color="#311824" stop-opacity="0.5"/>
</linearGradient>
<linearGradient id="paint2_linear" x1="13" y1="74" x2="153" y2="74" gradientUnits="userSpaceOnUse">
<stop stop-color="#1D3118" stop-opacity="0.5"/>
<stop offset="0.5" stop-color="#251D59"/>
<stop offset="1" stop-color="#311824" stop-opacity="0.5"/>
</linearGradient>
<linearGradient id="paint3_linear" x1="13" y1="74" x2="153" y2="74" gradientUnits="userSpaceOnUse">
<stop stop-color="#1D3118" stop-opacity="0.5"/>
<stop offset="0.5" stop-color="#251D59"/>
<stop offset="1" stop-color="#311824" stop-opacity="0.5"/>
</linearGradient>
</defs>
</svg>
