<svg width="166" height="156" viewBox="0 0 166 156" fill="none" xmlns="http://www.w3.org/2000/svg">
<g filter="url(#filter0_f)">
<path fill-rule="evenodd" clip-rule="evenodd" d="M56 90.1395C66.4934 90.1395 75 81.6329 75 71.1395C75 60.6461 66.4934 52.1395 56 52.1395C45.5066 52.1395 37 60.6461 37 71.1395C37 81.6329 45.5066 90.1395 56 90.1395ZM56 80.1395C60.9706 80.1395 65 76.1101 65 71.1395C65 66.169 60.9706 62.1395 56 62.1395C51.0294 62.1395 47 66.169 47 71.1395C47 76.1101 51.0294 80.1395 56 80.1395Z" fill="url(#paint0_linear)"/>
<path d="M91.9331 103.859C92.5512 104.601 92.5512 105.678 91.9331 106.42L84.5365 115.296C83.7369 116.255 82.2632 116.255 81.4636 115.296L74.067 106.42C73.449 105.678 73.449 104.601 74.067 103.859L81.4636 94.9833C82.2632 94.0238 83.7369 94.0237 84.5364 94.9832L91.9331 103.859Z" fill="url(#paint1_linear)"/>
<path fill-rule="evenodd" clip-rule="evenodd" d="M110 90.1395C120.493 90.1395 129 81.6329 129 71.1395C129 60.6461 120.493 52.1395 110 52.1395C99.5066 52.1395 91 60.6461 91 71.1395C91 81.6329 99.5066 90.1395 110 90.1395ZM110 80.1395C114.971 80.1395 119 76.1101 119 71.1395C119 66.169 114.971 62.1395 110 62.1395C105.029 62.1395 101 66.169 101 71.1395C101 76.1101 105.029 80.1395 110 80.1395Z" fill="url(#paint2_linear)"/>
<path fill-rule="evenodd" clip-rule="evenodd" d="M45.8085 13.6865C46.5931 13.1936 47.6098 13.3325 48.2764 13.9761C57.2704 22.6588 69.5114 28 83 28C96.4886 28 108.73 22.6588 117.724 13.9761C118.39 13.3325 119.407 13.1936 120.191 13.6865C139.9 26.0705 153 48.0054 153 73C153 111.66 121.66 143 83 143C44.3401 143 13 111.66 13 73C13 48.0054 26.0999 26.0705 45.8085 13.6865ZM45.1342 23.9026C45.8552 23.3457 46.8612 23.377 47.5824 23.9339C57.3796 31.4993 69.6642 36 83 36C96.3358 36 108.62 31.4993 118.418 23.9339C119.139 23.377 120.145 23.3457 120.866 23.9026C135.546 35.241 145 53.0164 145 73C145 107.242 117.242 135 83 135C48.7583 135 21 107.242 21 73C21 53.0164 30.4544 35.241 45.1342 23.9026Z" fill="url(#paint3_linear)"/>
</g>
<path fill-rule="evenodd" clip-rule="evenodd" d="M56 85.1395C66.4934 85.1395 75 76.6329 75 66.1395C75 55.6461 66.4934 47.1395 56 47.1395C45.5066 47.1395 37 55.6461 37 66.1395C37 76.6329 45.5066 85.1395 56 85.1395ZM56 75.1395C60.9706 75.1395 65 71.1101 65 66.1395C65 61.169 60.9706 57.1395 56 57.1395C51.0294 57.1395 47 61.169 47 66.1395C47 71.1101 51.0294 75.1395 56 75.1395Z" fill="url(#paint4_linear)"/>
<path d="M91.9331 98.8592C92.5512 99.6008 92.5512 100.678 91.9331 101.42L84.5365 110.296C83.7369 111.255 82.2632 111.255 81.4636 110.296L74.067 101.42C73.449 100.678 73.449 99.6008 74.067 98.8592L81.4636 89.9833C82.2632 89.0238 83.7369 89.0237 84.5364 89.9832L91.9331 98.8592Z" fill="url(#paint5_linear)"/>
<path fill-rule="evenodd" clip-rule="evenodd" d="M110 85.1395C120.493 85.1395 129 76.6329 129 66.1395C129 55.6461 120.493 47.1395 110 47.1395C99.5066 47.1395 91 55.6461 91 66.1395C91 76.6329 99.5066 85.1395 110 85.1395ZM110 75.1395C114.971 75.1395 119 71.1101 119 66.1395C119 61.169 114.971 57.1395 110 57.1395C105.029 57.1395 101 61.169 101 66.1395C101 71.1101 105.029 75.1395 110 75.1395Z" fill="url(#paint6_linear)"/>
<path fill-rule="evenodd" clip-rule="evenodd" d="M45.8085 8.68654C46.5931 8.19357 47.6098 8.33254 48.2764 8.97608C57.2704 17.6588 69.5114 23 83 23C96.4886 23 108.73 17.6588 117.724 8.97608C118.39 8.33254 119.407 8.19357 120.191 8.68653C139.9 21.0705 153 43.0054 153 68C153 106.66 121.66 138 83 138C44.3401 138 13 106.66 13 68C13 43.0054 26.0999 21.0705 45.8085 8.68654ZM45.1342 18.9026C45.8552 18.3457 46.8612 18.377 47.5824 18.9339C57.3796 26.4993 69.6642 31 83 31C96.3358 31 108.62 26.4993 118.418 18.9339C119.139 18.377 120.145 18.3457 120.866 18.9026C135.546 30.241 145 48.0164 145 68C145 102.242 117.242 130 83 130C48.7583 130 21 102.242 21 68C21 48.0164 30.4544 30.241 45.1342 18.9026Z" fill="url(#paint7_linear)"/>
<path fill-rule="evenodd" clip-rule="evenodd" d="M75 64.1395C75 74.6329 66.4934 83.1395 56 83.1395C45.5066 83.1395 37 74.6329 37 64.1395C37 53.6461 45.5066 45.1395 56 45.1395C66.4934 45.1395 75 53.6461 75 64.1395ZM65 64.1395C65 69.1101 60.9706 73.1395 56 73.1395C51.0294 73.1395 47 69.1101 47 64.1395C47 59.169 51.0294 55.1395 56 55.1395C60.9706 55.1395 65 59.169 65 64.1395Z" fill="#0F1012"/>
<path d="M91.9331 96.8592L84.5365 87.9833C83.7369 87.0237 82.2632 87.0238 81.4636 87.9833L74.067 96.8592C73.449 97.6008 73.449 98.6782 74.067 99.4199L81.4636 108.296C82.2632 109.255 83.7369 109.255 84.5365 108.296L91.9331 99.4199C92.5512 98.6782 92.5512 97.6008 91.9331 96.8592Z" fill="#0F1012"/>
<path fill-rule="evenodd" clip-rule="evenodd" d="M110 83.1395C120.493 83.1395 129 74.6329 129 64.1395C129 53.6461 120.493 45.1395 110 45.1395C99.5066 45.1395 91 53.6461 91 64.1395C91 74.6329 99.5066 83.1395 110 83.1395ZM110 73.1395C114.971 73.1395 119 69.1101 119 64.1395C119 59.169 114.971 55.1395 110 55.1395C105.029 55.1395 101 59.169 101 64.1395C101 69.1101 105.029 73.1395 110 73.1395Z" fill="#0F1012"/>
<path fill-rule="evenodd" clip-rule="evenodd" d="M45.8085 6.68653C26.0999 19.0705 13 41.0054 13 66C13 104.66 44.3401 136 83 136C121.66 136 153 104.66 153 66C153 41.0054 139.9 19.0705 120.191 6.68654C119.407 6.19357 118.39 6.33254 117.724 6.97608C108.73 15.6588 96.4886 21 83 21C69.5114 21 57.2704 15.6588 48.2764 6.97608C47.6098 6.33254 46.5931 6.19357 45.8085 6.68653ZM45.1342 16.9026C30.4544 28.241 21 46.0164 21 66C21 100.242 48.7583 128 83 128C117.242 128 145 100.242 145 66C145 46.0164 135.546 28.241 120.866 16.9026C120.145 16.3457 119.139 16.377 118.418 16.9339C108.62 24.4993 96.3358 29 83 29C69.6642 29 57.3796 24.4993 47.5824 16.9339C46.8612 16.377 45.8552 16.3457 45.1342 16.9026Z" fill="#0F1012"/>
<defs>
<filter id="filter0_f" x="0" y="0.390076" width="166" height="155.61" filterUnits="userSpaceOnUse" color-interpolation-filters="sRGB">
<feFlood flood-opacity="0" result="BackgroundImageFix"/>
<feBlend mode="normal" in="SourceGraphic" in2="BackgroundImageFix" result="shape"/>
<feGaussianBlur stdDeviation="6.5" result="effect1_foregroundBlur"/>
</filter>
<linearGradient id="paint0_linear" x1="13" y1="78" x2="153" y2="78" gradientUnits="userSpaceOnUse">
<stop stop-color="#1A4110" stop-opacity="0.5"/>
<stop offset="0.5" stop-color="#271B6D"/>
<stop offset="1" stop-color="#47142D" stop-opacity="0.5"/>
</linearGradient>
<linearGradient id="paint1_linear" x1="13" y1="78" x2="153" y2="78" gradientUnits="userSpaceOnUse">
<stop stop-color="#1A4110" stop-opacity="0.5"/>
<stop offset="0.5" stop-color="#271B6D"/>
<stop offset="1" stop-color="#47142D" stop-opacity="0.5"/>
</linearGradient>
<linearGradient id="paint2_linear" x1="13" y1="78" x2="153" y2="78" gradientUnits="userSpaceOnUse">
<stop stop-color="#1A4110" stop-opacity="0.5"/>
<stop offset="0.5" stop-color="#271B6D"/>
<stop offset="1" stop-color="#47142D" stop-opacity="0.5"/>
</linearGradient>
<linearGradient id="paint3_linear" x1="13" y1="78" x2="153" y2="78" gradientUnits="userSpaceOnUse">
<stop stop-color="#1A4110" stop-opacity="0.5"/>
<stop offset="0.5" stop-color="#271B6D"/>
<stop offset="1" stop-color="#47142D" stop-opacity="0.5"/>
</linearGradient>
<linearGradient id="paint4_linear" x1="13" y1="73" x2="153" y2="73" gradientUnits="userSpaceOnUse">
<stop stop-color="#1D3118" stop-opacity="0.5"/>
<stop offset="0.5" stop-color="#251D59"/>
<stop offset="1" stop-color="#311824" stop-opacity="0.5"/>
</linearGradient>
<linearGradient id="paint5_linear" x1="13" y1="73" x2="153" y2="73" gradientUnits="userSpaceOnUse">
<stop stop-color="#1D3118" stop-opacity="0.5"/>
<stop offset="0.5" stop-color="#251D59"/>
<stop offset="1" stop-color="#311824" stop-opacity="0.5"/>
</linearGradient>
<linearGradient id="paint6_linear" x1="13" y1="73" x2="153" y2="73" gradientUnits="userSpaceOnUse">
<stop stop-color="#1D3118" stop-opacity="0.5"/>
<stop offset="0.5" stop-color="#251D59"/>
<stop offset="1" stop-color="#311824" stop-opacity="0.5"/>
</linearGradient>
<linearGradient id="paint7_linear" x1="13" y1="73" x2="153" y2="73" gradientUnits="userSpaceOnUse">
<stop stop-color="#1D3118" stop-opacity="0.5"/>
<stop offset="0.5" stop-color="#251D59"/>
<stop offset="1" stop-color="#311824" stop-opacity="0.5"/>
</linearGradient>
</defs>
</svg>
