<svg width="166" height="156" fill="none" xmlns="http://www.w3.org/2000/svg"><g filter="url(#filter0_d)"><path fill-rule="evenodd" clip-rule="evenodd" d="M56 86.14c10.493 0 19-8.507 19-19 0-10.494-8.507-19-19-19s-19 8.506-19 19c0 10.493 8.507 19 19 19zm0-10a9 9 0 100-18 9 9 0 000 18z" fill="url(#paint0_linear)"/><path d="M91.933 99.86a2 2 0 010 2.56l-7.397 8.876a2 2 0 01-3.072 0l-7.397-8.876a2 2 0 010-2.56l7.397-8.877a2 2 0 013.072 0l7.397 8.876z" fill="url(#paint1_linear)"/><path fill-rule="evenodd" clip-rule="evenodd" d="M110 86.14c10.493 0 19-8.507 19-19 0-10.494-8.507-19-19-19s-19 8.506-19 19c0 10.493 8.507 19 19 19zm0-10a9 9 0 009-9 9 9 0 00-9-9 9 9 0 00-9 9 9 9 0 009 9z" fill="url(#paint2_linear)"/><path fill-rule="evenodd" clip-rule="evenodd" d="M45.809 9.687c.784-.493 1.8-.354 2.467.29C57.27 18.658 69.511 24 83 24c13.489 0 25.73-5.341 34.724-14.024.666-.643 1.683-.782 2.467-.29C139.9 22.07 153 44.007 153 69c0 38.66-31.34 70-70 70s-70-31.34-70-70c0-24.995 13.1-46.93 32.809-59.313zm-.675 10.216c.721-.557 1.727-.526 2.448.03A57.748 57.748 0 0083 32a57.75 57.75 0 0035.418-12.066c.721-.557 1.727-.588 2.448-.031C135.546 31.24 145 49.016 145 69c0 34.242-27.758 62-62 62-34.242 0-62-27.758-62-62 0-19.984 9.454-37.759 24.134-49.097z" fill="url(#paint3_linear)"/></g><path fill-rule="evenodd" clip-rule="evenodd" d="M75 65.14c0 10.493-8.507 19-19 19s-19-8.507-19-19c0-10.494 8.507-19 19-19s19 8.506 19 19zm-10 0a9 9 0 11-18 0 9 9 0 0118 0z" fill="#0F1012"/><path d="M91.933 97.86l-7.397-8.877a2 2 0 00-3.072 0l-7.397 8.876a2 2 0 000 2.561l7.397 8.876a2 2 0 003.073 0l7.396-8.876a2 2 0 000-2.56z" fill="#0F1012"/><path fill-rule="evenodd" clip-rule="evenodd" d="M110 84.14c10.493 0 19-8.507 19-19 0-10.494-8.507-19-19-19s-19 8.506-19 19c0 10.493 8.507 19 19 19zm0-10a9 9 0 009-9 9 9 0 00-9-9 9 9 0 00-9 9 9 9 0 009 9z" fill="#0F1012"/><path fill-rule="evenodd" clip-rule="evenodd" d="M45.809 7.687C26.099 20.07 13 42.005 13 67c0 38.66 31.34 70 70 70s70-31.34 70-70c0-24.995-13.1-46.93-32.809-59.313-.784-.493-1.801-.354-2.467.29C108.73 16.658 96.489 22 83 22c-13.489 0-25.73-5.341-34.724-14.024-.666-.643-1.683-.782-2.468-.29zm-.675 10.216C30.454 29.24 21 47.016 21 67c0 34.242 27.758 62 62 62 34.242 0 62-27.758 62-62 0-19.984-9.454-37.759-24.134-49.097-.721-.557-1.727-.526-2.448.03A57.75 57.75 0 0183 30c-13.336 0-25.62-4.5-35.418-12.066-.72-.557-1.727-.588-2.448-.031z" fill="#0F1012"/><defs><linearGradient id="paint0_linear" x1="13" y1="74" x2="153" y2="74" gradientUnits="userSpaceOnUse"><stop stop-color="#1B1831" stop-opacity=".5"/><stop offset=".5" stop-color="#251D59"/><stop offset="1" stop-color="#1B1831" stop-opacity=".5"/></linearGradient><linearGradient id="paint1_linear" x1="13" y1="74" x2="153" y2="74" gradientUnits="userSpaceOnUse"><stop stop-color="#1B1831" stop-opacity=".5"/><stop offset=".5" stop-color="#251D59"/><stop offset="1" stop-color="#1B1831" stop-opacity=".5"/></linearGradient><linearGradient id="paint2_linear" x1="13" y1="74" x2="153" y2="74" gradientUnits="userSpaceOnUse"><stop stop-color="#1B1831" stop-opacity=".5"/><stop offset=".5" stop-color="#251D59"/><stop offset="1" stop-color="#1B1831" stop-opacity=".5"/></linearGradient><linearGradient id="paint3_linear" x1="13" y1="74" x2="153" y2="74" gradientUnits="userSpaceOnUse"><stop stop-color="#1B1831" stop-opacity=".5"/><stop offset=".5" stop-color="#251D59"/><stop offset="1" stop-color="#1B1831" stop-opacity=".5"/></linearGradient><filter id="filter0_d" x="0" y=".39" width="166" height="155.61" filterUnits="userSpaceOnUse" color-interpolation-filters="sRGB"><feFlood flood-opacity="0" result="BackgroundImageFix"/><feColorMatrix in="SourceAlpha" values="0 0 0 0 0 0 0 0 0 0 0 0 0 0 0 0 0 0 127 0"/><feOffset dy="4"/><feGaussianBlur stdDeviation="6.5"/><feColorMatrix values="0 0 0 0 0.105882 0 0 0 0 0.0941176 0 0 0 0 0.192157 0 0 0 1 0"/><feBlend in2="BackgroundImageFix" result="effect1_dropShadow"/><feBlend in="SourceGraphic" in2="effect1_dropShadow" result="shape"/></filter></defs></svg>